<svg width="36" height="36" viewBox="0 0 36 36" fill="none" xmlns="http://www.w3.org/2000/svg">
<path fill-rule="evenodd" clip-rule="evenodd" d="M17.4046 0.158108C17.7736 -0.0527027 18.2264 -0.0527027 18.5954 0.158108L35.3954 9.75811C35.7694 9.97176 36 10.3694 36 10.8V12.5277C36 23.4056 28.789 32.9654 18.3297 35.9539C18.1142 36.0154 17.8858 36.0154 17.6703 35.9539C7.21104 32.9654 0 23.4056 0 12.5277V10.8C0 10.3694 0.230743 9.97176 0.604634 9.75811L17.4046 0.158108ZM16.9723 25.7057L27.3372 12.7496L25.463 11.2504L16.6278 22.2944L10.3683 17.0781L8.83183 18.9219L16.9723 25.7057Z" fill="#DC2E3F"/>
</svg>
