<svg width="19" height="19" viewBox="0 0 19 19" fill="none" xmlns="http://www.w3.org/2000/svg">
<path d="M7.47955 0H0.80818C0.365235 0 0 0.365235 0 0.80818V7.47955C0 7.92249 0.365235 8.28773 0.80818 8.28773H7.47955C7.92249 8.28773 8.28773 7.92249 8.28773 7.47955V0.80818C8.28773 0.365235 7.92249 0 7.47955 0ZM6.67137 6.71022H1.5775V1.5775H6.67137V6.71022Z" fill="#DC2E3F"/>
<path d="M7.47955 10.7123H0.80818C0.365235 10.7123 0 11.0775 0 11.5204V18.1918C0 18.6348 0.365235 19 0.80818 19H7.47955C7.92249 19 8.28773 18.6348 8.28773 18.2307V11.5204C8.28773 11.0775 7.92249 10.7123 7.47955 10.7123ZM6.67137 17.4225H1.5775V12.2898H6.67137V17.4225Z" fill="#DC2E3F"/>
<path d="M10.1877 4.93067H18.1918C18.6348 4.93067 19 4.56544 19 4.12249C19 3.67955 18.6348 3.31431 18.1918 3.31431H10.1877C9.74479 3.31431 9.37955 3.67955 9.37955 4.12249C9.37955 4.56932 9.7409 4.93067 10.1877 4.93067Z" fill="#DC2E3F"/>
<path d="M18.1918 14.0266H10.1877C9.74479 14.0266 9.37955 14.3918 9.37955 14.8348C9.37955 15.2777 9.74479 15.6429 10.1877 15.6429H18.1918C18.6348 15.6429 19 15.2777 19 14.8348C19 14.3918 18.6348 14.0266 18.1918 14.0266Z" fill="#DC2E3F"/>
</svg>
