<svg width="20" height="22" viewBox="0 0 20 22" fill="none" xmlns="http://www.w3.org/2000/svg">
<path d="M15.6222 4.66684L14.5609 6.0303C16.8486 7.81045 17.9898 10.6925 17.5394 13.5525C17.2095 15.6511 16.0818 17.4956 14.3644 18.7466C12.6465 19.9969 10.545 20.5051 8.44643 20.1734C4.11419 19.4913 1.14371 15.4119 1.82471 11.0793C2.15465 8.98046 3.28264 7.13582 5.00023 5.8852C6.49983 4.79354 8.29179 4.26923 10.1192 4.37323L8.62559 5.94016L9.7336 6.99753L12.0913 4.5223L12.0919 4.52321L13.1481 3.41407L12.0409 2.35783L12.0403 2.35817L9.56602 0L8.50899 1.10915L10.1212 2.64474C7.92961 2.54108 5.78296 3.17859 3.9835 4.48881C1.89294 6.011 0.520277 8.25609 0.118356 10.8111C-0.710693 16.0844 2.90456 21.0504 8.1778 21.8802C8.68747 21.9606 9.19691 22 9.70306 22C11.7342 22 13.7079 21.3616 15.3812 20.143C17.472 18.6206 18.8444 16.3755 19.2463 13.821C19.7946 10.3406 18.4058 6.83279 15.6222 4.66684Z" fill="#DC2E3F"/>
<circle cx="9.5" cy="12.5" r="1.5" fill="#DC2E3F"/>
</svg>
