<svg width="20" height="20" viewBox="0 0 20 20" fill="none" xmlns="http://www.w3.org/2000/svg">
<path d="M18.3806 0H1.57525C0.722328 0 0 0.681518 0 1.57525V12.7203C0 13.5732 0.681518 14.2956 1.57525 14.2956H2.59548V19.1886C2.59548 19.5273 2.80769 19.8252 3.1056 19.9558C3.1913 19.9966 3.71366 20.0946 4.04014 19.7436L9.2311 14.2548H18.3765C19.2294 14.2548 19.9518 13.5732 19.9518 12.6795V1.57525C19.9558 0.722328 19.2743 0 18.3806 0ZM18.3398 12.6346H8.89239C8.68018 12.6346 8.46797 12.7203 8.29657 12.8917L4.25643 17.1033V13.4875C4.25643 13.0182 3.87282 12.6346 3.40351 12.6346H1.66095V1.65686H18.3398V12.6346Z" fill="#DC2E3F"/>
<path d="M14.1527 6.13366C14.1527 5.19913 13.3937 4.44007 12.4591 4.44007C11.5246 4.44007 10.7655 5.19913 10.7655 6.13366C10.7655 6.69684 11.043 7.19879 11.4675 7.50486L10.6227 9.61471H12.2837L13.863 7.08453C14.0425 6.8111 14.1527 6.48463 14.1527 6.13366Z" fill="#DC2E3F"/>
<path d="M9.33721 6.13366C9.33721 5.19913 8.57815 4.44007 7.64362 4.44007C6.70908 4.44007 5.95002 5.19913 5.95002 6.13366C5.95002 6.69684 6.22753 7.19879 6.65195 7.50486L5.80719 9.61471H7.46814L9.04746 7.08453C9.22702 6.8111 9.33721 6.48463 9.33721 6.13366Z" fill="#DC2E3F"/>
</svg>
