<svg width="23" height="23" viewBox="0 0 23 23" fill="none" xmlns="http://www.w3.org/2000/svg">
<path d="M12.3589 17V16.9996H12.359V15.719C13.8774 15.5495 15.3547 14.5903 15.3547 12.7693C15.3547 10.2951 13.0541 10.0114 11.3737 9.8045C10.2993 9.67611 9.47698 9.52709 9.47698 8.87619C9.47698 7.97126 10.7525 7.87372 11.301 7.87372C12.1151 7.87372 12.9838 8.25643 13.2789 8.74486L13.3646 8.88686L15.0525 8.1058L14.9689 7.93558C14.34 6.64971 13.2128 6.27768 12.3586 6.1275V5H10.3822V6.12267C8.54223 6.39409 7.44954 7.41527 7.44954 8.87619C7.44954 11.2584 9.61254 11.5001 11.1906 11.6771C12.597 11.8429 13.2517 12.1904 13.2517 12.7693C13.2517 13.8753 11.72 13.9618 11.2504 13.9618C10.2052 13.9618 9.19752 13.4403 8.90607 12.7478L8.83368 12.5769L7 13.3543L7.07312 13.5252C7.6161 14.7962 8.78776 15.5926 10.3825 15.781V17H12.3589Z" fill="#DC2E3F"/>
<circle cx="11.5" cy="11.5" r="10.5" stroke="#DC2E3F" stroke-width="2"/>
</svg>
