<svg width="17" height="16" viewBox="0 0 17 16" fill="none" xmlns="http://www.w3.org/2000/svg">
<path d="M9.18558 1.375L16.727 14.4375C16.7965 14.5578 16.8331 14.6944 16.8331 14.8333C16.8331 14.9723 16.7965 15.1088 16.727 15.2292C16.6575 15.3495 16.5576 15.4494 16.4372 15.5189C16.3169 15.5884 16.1804 15.625 16.0414 15.625H0.958583C0.819619 15.625 0.683103 15.5884 0.562757 15.5189C0.442411 15.4494 0.342476 15.3495 0.272995 15.2292C0.203514 15.1088 0.166936 14.9723 0.166937 14.8333C0.166938 14.6944 0.203518 14.5578 0.273 14.4375L7.81442 1.375C7.8839 1.25466 7.98384 1.15473 8.10418 1.08525C8.22453 1.01578 8.36104 0.979202 8.5 0.979202C8.63896 0.979202 8.77547 1.01578 8.89582 1.08525C9.01616 1.15473 9.1161 1.25466 9.18558 1.375ZM7.70833 11.6667V13.25H9.29167V11.6667H7.70833ZM7.70833 6.125V10.0833H9.29167V6.125H7.70833Z" fill="#DC2E3F"/>
</svg>
