<svg width="11" height="10" viewBox="0 0 11 10" fill="none" xmlns="http://www.w3.org/2000/svg">
<path d="M1.04694 6.66162C0.603114 5.5901 0.60309 4.40988 1.04694 3.33836C1.30125 2.7244 1.68404 2.18844 2.16601 1.75898L3.61941 3.21238V0.30071H0.707713L1.66009 1.25309C0.124705 2.64836 -0.453384 4.91166 0.385056 6.9358C0.723379 7.75258 1.27033 8.46798 1.96679 9.00471C2.64203 9.52505 3.44439 9.86923 4.28712 10L4.397 9.29202C2.8843 9.0573 1.63196 8.07395 1.04694 6.66162Z" fill="#DC2E3F"/>
<path d="M9.73191 6.9358C10.249 5.68749 10.249 4.31251 9.73191 3.0642C9.39359 2.24742 8.84661 1.53202 8.15017 0.995315C7.47493 0.474946 6.67258 0.130773 5.82984 0L5.71996 0.707978C7.23264 0.942705 8.48498 1.92603 9.07 3.33838C9.51385 4.4099 9.51385 5.59013 9.07 6.66164C8.81569 7.2756 8.4329 7.81156 7.95096 8.24102L6.49755 6.78762V9.69929H9.40923L8.45874 8.7488C9.00597 8.2531 9.44099 7.63814 9.73191 6.9358Z" fill="#DC2E3F"/>
</svg>
