<svg width="13" height="13" viewBox="0 0 13 13" fill="none" xmlns="http://www.w3.org/2000/svg">
<path d="M6.50026 13C10.09 13 13 10.09 13 6.50029C13 2.91058 10.09 0.000548895 6.50026 0.000548895C2.91055 0.000548895 0.00052145 2.91058 0.00052145 6.50029C0.00052145 10.09 2.91055 13 6.50026 13Z" fill="white"/>
<path d="M12.6284 4.33289H8.62363C8.79749 5.72141 8.79862 7.25134 8.62693 8.64158H12.637C12.871 7.97078 12.9998 7.25063 12.9998 6.50007C12.9999 5.73988 12.8682 5.01078 12.6284 4.33289Z" fill="#EFECEC"/>
<path d="M8.62363 4.33289H12.6284C12.6277 4.33084 12.6271 4.32911 12.6264 4.32724C11.7944 1.98162 9.65465 0.255867 7.0836 0.0267861C8.07855 0.572168 8.36908 2.30009 8.62363 4.33289Z" fill="#E63026"/>
<path d="M7.08371 12.9732C9.65934 12.7437 11.8022 11.012 12.6308 8.66005C12.633 8.6538 12.6348 8.64765 12.6371 8.64158H8.62687C8.37454 10.6854 8.08272 12.4255 7.08371 12.9732Z" fill="#2B479D"/>
<path d="M0 6.50007C0 7.25063 0.128798 7.97078 0.362792 8.64158H8.96159C9.13328 7.25123 9.13216 5.72141 8.95829 4.33289H0.37141C0.131652 5.01078 0 5.73988 0 6.50007Z" fill="#EFEFEF"/>
<path d="M0.373331 4.32727C0.372617 4.32911 0.371986 4.33086 0.371273 4.33292H8.95827C8.70374 2.30009 8.0785 0.572196 7.08371 0.0268135C6.89129 0.00974289 6.69668 0 6.49985 0C3.67227 0 1.26751 1.806 0.373331 4.32727Z" fill="#E73B36"/>
<path d="M8.96159 8.64158H0.362792C0.36496 8.64765 0.366909 8.6538 0.369049 8.66005C1.25969 11.1878 3.66761 13 6.49985 13C6.69671 13 6.89129 12.9904 7.08371 12.9732C8.08272 12.4255 8.70921 10.6854 8.96159 8.64158Z" fill="#3757A6"/>
</svg>
