<svg width="14" height="13" viewBox="0 0 14 13" fill="none" xmlns="http://www.w3.org/2000/svg">
<path d="M3.59699 6.5C3.59699 6.34328 3.65113 6.19298 3.74749 6.08216C3.84386 5.97135 3.97456 5.90909 4.11084 5.90909H8.73554V2.06818C8.73554 0.886364 7.65034 0 6.68012 0H1.79849C1.32166 0.000586561 0.864502 0.218672 0.52733 0.606404C0.190158 0.994137 0.000510074 1.51985 0 2.06818V10.9318C0.000510074 11.4802 0.190158 12.0059 0.52733 12.3936C0.864502 12.7813 1.32166 12.9994 1.79849 13H6.93705C7.41388 12.9994 7.87104 12.7813 8.20821 12.3936C8.54538 12.0059 8.73503 11.4802 8.73554 10.9318V7.09091H4.11084C3.97456 7.09091 3.84386 7.02865 3.74749 6.91784C3.65113 6.80702 3.59699 6.65672 3.59699 6.5Z" fill="#C0C0C0"/>
<path d="M13.2096 6.0823L10.6403 3.12776C10.5432 3.02162 10.4138 2.96332 10.2798 2.96529C10.1458 2.96726 10.0178 3.02935 9.92306 3.13832C9.8283 3.24728 9.77431 3.3945 9.77259 3.54859C9.77088 3.70267 9.82158 3.85143 9.91387 3.96315L11.6057 5.90909H8.73554V7.09091H11.6057L9.91387 9.03685C9.86415 9.09117 9.82439 9.15639 9.79693 9.22867C9.76947 9.30095 9.75487 9.37881 9.75399 9.45768C9.75311 9.53654 9.76597 9.61481 9.79181 9.68787C9.81765 9.76093 9.85595 9.82731 9.90445 9.88308C9.95295 9.93885 10.0107 9.98289 10.0742 10.0126C10.1377 10.0423 10.2058 10.0571 10.2744 10.0561C10.343 10.0551 10.4107 10.0383 10.4735 10.0067C10.5364 9.97515 10.5931 9.92942 10.6403 9.87224L13.2096 6.9177C13.3059 6.80689 13.36 6.65665 13.36 6.5C13.36 6.34335 13.3059 6.19311 13.2096 6.0823Z" fill="#C0C0C0"/>
</svg>
