<svg width="19" height="19" viewBox="0 0 19 19" fill="none" xmlns="http://www.w3.org/2000/svg">
<path d="M9.5 0C5.824 0 2.8334 3.0151 2.8334 6.72108C2.8334 8.25034 3.33053 9.69059 4.27103 10.8861C5.47049 12.4108 8.95168 16.0239 9.09932 16.177L9.49994 16.5925L9.90062 16.177C10.0483 16.0239 13.5306 12.41 14.7302 10.8848C15.6699 9.6902 16.1665 8.2504 16.1665 6.72108C16.1666 3.0151 13.176 0 9.5 0ZM13.8545 10.1847C12.9242 11.3676 10.4686 13.9596 9.5 14.9736C8.53173 13.9599 6.07698 11.3685 5.14671 10.186C4.36447 9.19166 3.95105 7.99355 3.95105 6.72113C3.95105 3.6364 6.44027 1.12684 9.5 1.12684C12.5597 1.12684 15.049 3.6364 15.049 6.72113C15.049 7.99361 14.6359 9.19132 13.8545 10.1847Z" fill="#DC2E3F"/>
<path d="M9.5 2.61988C7.29701 2.61988 5.50469 4.42678 5.50469 6.64778C5.50469 8.86878 7.29695 10.6757 9.5 10.6757C11.7031 10.6757 13.4953 8.86883 13.4953 6.64778C13.4953 4.42684 11.703 2.61988 9.5 2.61988ZM9.5 9.54896C7.91328 9.54896 6.62234 8.24747 6.62234 6.64778C6.62234 5.04809 7.91328 3.74666 9.5 3.74666C11.0867 3.74666 12.3777 5.04809 12.3777 6.64778C12.3777 8.24747 11.0867 9.54896 9.5 9.54896Z" fill="#DC2E3F"/>
<path d="M17.4964 2.48776L16.6311 3.2009C17.438 4.19602 17.8824 5.45131 17.8824 6.73544C17.8824 8.00797 17.4693 9.20568 16.6879 10.1991L17.5637 10.8992C18.5033 9.70457 19 8.26477 19 6.73544C19 5.19209 18.466 3.68356 17.4964 2.48776Z" fill="#DC2E3F"/>
<path d="M1.50357 2.48776C0.533956 3.68356 0 5.19209 0 6.73544C0 8.26477 0.496682 9.70457 1.43634 10.8992L2.31208 10.1991C1.53067 9.20563 1.11765 8.00797 1.11765 6.73544C1.11765 5.45131 1.56202 4.19602 2.36885 3.2009L1.50357 2.48776Z" fill="#DC2E3F"/>
<path d="M12.8529 17.8732H6.14706V19H12.8529V17.8732Z" fill="#DC2E3F"/>
</svg>
