<svg width="19" height="19" viewBox="0 0 19 19" fill="none" xmlns="http://www.w3.org/2000/svg">
<g clip-path="url(#clip0_6_10666)">
<path d="M6.33301 12.6667L6.33301 14.7778L10.5552 14.7778L10.5552 12.6667L6.33301 12.6667Z" fill="#DC2E3F"/>
<path d="M6.33301 8.44455L6.33301 10.5557L10.5552 10.5557L10.5552 8.44455L6.33301 8.44455Z" fill="#DC2E3F"/>
<path d="M6.33301 4.22214L6.33301 6.33325L10.5552 6.33325L10.5552 4.22214L6.33301 4.22214Z" fill="#DC2E3F"/>
<path d="M14.2504 11.0832L14.2504 16.8888L8.97266 16.8888L8.97266 17.9443L14.2504 17.9443C14.5304 17.9443 14.7989 17.8331 14.9968 17.6352C15.1948 17.4372 15.306 17.1687 15.306 16.8888L15.306 10.2335L13.4852 10.2335L13.4852 9.04072L12.6671 9.04072L12.6671 11.0832L14.2504 11.0832Z" fill="#DC2E3F"/>
<path d="M3.69434 2.111L3.69434 16.8888C3.69434 17.1687 3.80555 17.4372 4.0035 17.6352C4.20146 17.8331 4.46994 17.9443 4.74989 17.9443L6.861 17.9443L6.861 16.8888L4.74989 16.8888L4.74989 2.111L6.861 2.111L6.861 1.05545L4.74989 1.05545C4.46994 1.05545 4.20146 1.16666 4.0035 1.36461C3.80555 1.56257 3.69434 1.83105 3.69434 2.111Z" fill="#DC2E3F"/>
<path d="M14.2504 2.11106L14.2504 8.97217L15.306 8.97217L15.306 2.11106C15.306 1.83111 15.1948 1.56262 14.9968 1.36467C14.7989 1.16671 14.5304 1.0555 14.2504 1.0555L8.97266 1.0555L8.97266 2.11106L14.2504 2.11106Z" fill="#DC2E3F"/>
</g>
<defs>
<clipPath id="clip0_6_10666">
<rect width="19" height="19" fill="white" transform="translate(0 19) rotate(-90)"/>
</clipPath>
</defs>
</svg>
