<svg width="15" height="15" viewBox="0 0 15 15" fill="none" xmlns="http://www.w3.org/2000/svg">
<path d="M9.60429 10.0368C9.46626 10.0368 9.35583 10.1411 9.34049 10.2791C9.22086 11.4632 8.22086 12.3865 7.00307 12.3865C5.78834 12.3865 4.78834 11.4632 4.66564 10.2791C4.65031 10.1442 4.53988 10.0368 4.40184 10.0368H1.21166C0.542945 10.0368 0 10.5798 0 11.2485V13.7883C0 14.4571 0.542945 15 1.21166 15H12.8006C13.4693 15 14.0123 14.4571 14.0123 13.7883V11.2515C14.0123 10.5828 13.4693 10.0399 12.8006 10.0399H9.60429V10.0368Z" fill="#DC2E3F"/>
<path d="M5.19632 3.94785L6.14417 3V9.17791C6.14417 9.65337 6.53067 10.0399 7.00613 10.0399C7.4816 10.0399 7.8681 9.65337 7.8681 9.17791V3L8.81595 3.94785C9.10736 4.23926 9.57362 4.31288 9.91718 4.08282C10.3865 3.76994 10.4325 3.12883 10.0552 2.75153L7.51534 0.211656C7.23313 -0.0705522 6.77607 -0.0705522 6.49387 0.211656L3.95399 2.75153C3.57669 3.12883 3.6227 3.76994 4.09202 4.08282C4.43865 4.31288 4.90491 4.23926 5.19632 3.94785Z" fill="#DC2E3F"/>
</svg>
