<svg width="15" height="15" viewBox="0 0 15 15" fill="none" xmlns="http://www.w3.org/2000/svg">
<path d="M14.9522 5.41458C14.8721 5.16815 14.6591 4.98855 14.4028 4.95134L10.0549 4.31964L8.11036 0.379424C7.9957 0.147105 7.75907 0 7.50003 0C7.24094 0 7.00431 0.147105 6.88969 0.379424L4.94534 4.31959L0.597295 4.9513C0.340927 4.98855 0.127892 5.16815 0.0478511 5.41453C-0.0321901 5.66096 0.0345563 5.93144 0.220094 6.11226L3.36634 9.17878L2.62333 13.5096C2.57954 13.765 2.68449 14.023 2.89408 14.1753C3.01264 14.2615 3.15308 14.3053 3.29419 14.3053C3.4025 14.3053 3.51127 14.2795 3.61086 14.2271L7.49998 12.1826L11.3891 14.2271C11.4892 14.2798 11.599 14.3049 11.7076 14.3053C12.0831 14.3048 12.3873 14.0003 12.3873 13.6247C12.3873 13.5724 12.3814 13.5215 12.3702 13.4726L11.6337 9.17883L14.7799 6.11226C14.9655 5.93144 15.0322 5.66096 14.9522 5.41458Z" fill="#DC2E3F"/>
</svg>
