<svg width="37" height="33" viewBox="0 0 37 33" fill="none" xmlns="http://www.w3.org/2000/svg">
<path d="M0.158936 1H36.6954V14.7318C36.6954 24.821 28.5164 33 18.4272 33V33C8.3379 33 0.158936 24.821 0.158936 14.7318V1Z" fill="#F5F5F5"/>
<path d="M9.74619 13.32H7.50619V12H13.6062V13.32H11.3662V19H9.74619V13.32ZM17.4702 19.12C16.7435 19.12 16.0868 18.9633 15.5002 18.65C14.9202 18.3367 14.4635 17.9067 14.1302 17.36C13.8035 16.8067 13.6402 16.1867 13.6402 15.5C13.6402 14.8133 13.8035 14.1967 14.1302 13.65C14.4635 13.0967 14.9202 12.6633 15.5002 12.35C16.0868 12.0367 16.7435 11.88 17.4702 11.88C18.1968 11.88 18.8502 12.0367 19.4302 12.35C20.0102 12.6633 20.4668 13.0967 20.8002 13.65C21.1335 14.1967 21.3002 14.8133 21.3002 15.5C21.3002 16.1867 21.1335 16.8067 20.8002 17.36C20.4668 17.9067 20.0102 18.3367 19.4302 18.65C18.8502 18.9633 18.1968 19.12 17.4702 19.12ZM17.4702 17.74C17.8835 17.74 18.2568 17.6467 18.5902 17.46C18.9235 17.2667 19.1835 17 19.3702 16.66C19.5635 16.32 19.6602 15.9333 19.6602 15.5C19.6602 15.0667 19.5635 14.68 19.3702 14.34C19.1835 14 18.9235 13.7367 18.5902 13.55C18.2568 13.3567 17.8835 13.26 17.4702 13.26C17.0568 13.26 16.6835 13.3567 16.3502 13.55C16.0168 13.7367 15.7535 14 15.5602 14.34C15.3735 14.68 15.2802 15.0667 15.2802 15.5C15.2802 15.9333 15.3735 16.32 15.5602 16.66C15.7535 17 16.0168 17.2667 16.3502 17.46C16.6835 17.6467 17.0568 17.74 17.4702 17.74ZM25.2477 12C25.8677 12 26.4043 12.1033 26.8577 12.31C27.3177 12.5167 27.671 12.81 27.9177 13.19C28.1643 13.57 28.2877 14.02 28.2877 14.54C28.2877 15.0533 28.1643 15.5033 27.9177 15.89C27.671 16.27 27.3177 16.5633 26.8577 16.77C26.4043 16.97 25.8677 17.07 25.2477 17.07H23.8377V19H22.2177V12H25.2477ZM25.1577 15.75C25.6443 15.75 26.0143 15.6467 26.2677 15.44C26.521 15.2267 26.6477 14.9267 26.6477 14.54C26.6477 14.1467 26.521 13.8467 26.2677 13.64C26.0143 13.4267 25.6443 13.32 25.1577 13.32H23.8377V15.75H25.1577Z" fill="#303030"/>
</svg>
