<svg width="11" height="10" viewBox="0 0 11 10" fill="none" xmlns="http://www.w3.org/2000/svg">
<path d="M10.2571 3.8837L8.95078 2.81902V1.11628C8.95078 0.924539 8.79476 0.768521 8.60301 0.768521H7.78103C7.58929 0.768521 7.43327 0.924539 7.43327 1.11628V1.58219L5.68773 0.159559C5.56146 0.0566851 5.39504 0 5.21914 0C5.04393 0 4.8783 0.0563373 4.75273 0.158674L0.183367 3.88367C-0.0242464 4.05284 -0.0117903 4.2002 0.0141021 4.27297C0.0399313 4.34559 0.123109 4.46744 0.389811 4.46744H1.0155V9.36603C1.0155 9.71563 1.29914 10 1.64779 10H3.62371C3.96941 10 4.24019 9.72151 4.24019 9.36603V7.3572C4.24019 7.18503 4.39842 7.02825 4.57215 7.02825H5.89996C6.06556 7.02825 6.2003 7.17583 6.2003 7.3572V9.36603C6.2003 9.70968 6.4971 10 6.8484 10H8.7927C9.14135 10 9.425 9.71559 9.425 9.36603V4.46744H10.0507C10.3174 4.46744 10.4005 4.34559 10.4264 4.27297C10.4523 4.2002 10.4647 4.05284 10.2571 3.8837Z" fill="#303030"/>
</svg>
