<svg width="16" height="16" viewBox="0 0 16 16" fill="none" xmlns="http://www.w3.org/2000/svg">
<path d="M1.40895 3.46702C0.893059 4.21581 0.500996 5.05658 0.263266 5.96024H3.90231L1.40895 3.46702Z" fill="#29337A"/>
<path d="M5.75953 0.320216C4.8378 0.588651 3.98416 1.01699 3.23246 1.57568L5.75953 4.10275V0.320216Z" fill="#29337A"/>
<path d="M3.4204 14.5577C4.12549 15.0511 4.91322 15.4331 5.75953 15.6795V12.219L3.4204 14.5577Z" fill="#29337A"/>
<path d="M0.355075 10.3621C0.619591 11.2189 1.02493 12.0138 1.54295 12.721L3.90177 10.3621H0.355075Z" fill="#29337A"/>
<path d="M1.54092 3.28134C1.4962 3.34248 1.45215 3.40436 1.40895 3.46702L3.90231 5.96024H0.263266C0.20429 6.1847 0.156122 6.41361 0.116467 6.64553H4.90539L1.54092 3.28134Z" fill="white"/>
<path d="M3.23483 14.4257C3.29569 14.4711 3.35828 14.5143 3.4204 14.5577L5.75953 12.219V15.6795C5.98426 15.7452 6.21246 15.8019 6.44465 15.8475V11.216L3.23483 14.4257Z" fill="white"/>
<path d="M0.177335 9.67698C0.226989 9.90914 0.285729 10.1378 0.355075 10.3621H3.90177L1.54295 12.721C1.79949 13.0715 2.08387 13.4004 2.39297 13.7046L6.42054 9.67698H0.177335Z" fill="white"/>
<path d="M5.75953 0.320216V4.10275L3.23246 1.57568C2.88407 1.83476 2.55839 2.12251 2.25665 2.43388L6.44455 6.62179V0.152204C6.2125 0.198075 5.98426 0.254923 5.75953 0.320216Z" fill="white"/>
<path d="M5.75953 10.338L5.73552 10.3621H5.75953V10.338Z" fill="#D32030"/>
<path d="M6.42054 9.67698H6.44465V9.65286L6.42054 9.67698Z" fill="#D32030"/>
<path d="M9.49938 6.6454H9.47627V6.66864L9.49938 6.6454Z" fill="#D32030"/>
<path d="M5.78314 5.96038L5.75953 5.93663V5.96038H5.78314Z" fill="#D32030"/>
<path d="M6.44455 6.62179L6.44465 6.6454H6.4683L6.44455 6.62179Z" fill="#D32030"/>
<path d="M10.1613 13.9086V15.7019C11.0186 15.4619 11.8179 15.0836 12.5329 14.5907L10.5898 12.6476C10.4345 13.1931 10.3777 13.4752 10.1613 13.9086Z" fill="#252F6C"/>
<path d="M10.6 3.66394L12.7212 1.54271C11.9591 0.984631 11.0946 0.559331 10.1613 0.297855V2.14004C10.4107 2.63962 10.4317 3.01922 10.6 3.66394Z" fill="#252F6C"/>
<path d="M14.4242 12.7676C14.9584 12.0489 15.3748 11.2378 15.6452 10.3621H12.0188L14.4242 12.7676Z" fill="#252F6C"/>
<path d="M15.7368 5.96038C15.494 5.03763 15.0902 4.18108 14.558 3.42054L12.0179 5.96038H15.7368Z" fill="#252F6C"/>
<path d="M11.067 9.81253L14.2481 12.9937C14.3079 12.9189 14.3671 12.8442 14.4242 12.7676L12.0188 10.3621H15.6452C15.7143 10.1379 15.7731 9.90931 15.8227 9.67712H11.1184C11.1107 9.77426 11.0762 9.71603 11.067 9.81253Z" fill="#E7E7E7"/>
<path d="M10.5169 4.06512L12.9018 1.67989C12.8421 1.63354 12.7822 1.58743 12.7212 1.54271L10.6 3.66394C10.622 3.74781 10.4964 3.97923 10.5169 4.06512Z" fill="#E7E7E7"/>
<path d="M10.1613 1.99264L10.1613 0.297855C9.9368 0.23496 9.70833 0.181523 9.47614 0.138051V0.964803C9.73106 1.24118 9.95957 1.58831 10.1613 1.99264Z" fill="#E7E7E7"/>
<path d="M11.013 6.6454H15.8837C15.8441 6.41348 15.7957 6.18497 15.7368 5.96038H12.0179L14.558 3.42054C14.3083 3.06381 14.0309 2.72819 13.7277 2.41733L10.8666 5.27813C10.9437 5.79706 10.9782 6.09843 11.013 6.6454Z" fill="#E7E7E7"/>
<path d="M10.4742 12.5317L12.5329 14.5907C12.8753 14.3549 13.1979 14.0925 13.4988 13.8075L10.7907 11.0993C10.7043 11.6002 10.6018 12.0839 10.4742 12.5317Z" fill="#E7E7E7"/>
<path d="M9.47627 14.9401V15.8615C9.70843 15.8183 9.9367 15.7648 10.1613 15.7019V13.9086C9.95943 14.3131 9.73106 14.6641 9.47627 14.9401Z" fill="#E7E7E7"/>
<path d="M10.8666 5.27813L13.7277 2.41733C13.4702 2.15281 13.1939 1.90664 12.9018 1.67989L10.6538 3.92819C10.7537 4.34579 10.7991 4.82378 10.8666 5.27813Z" fill="#D71F28"/>
<path d="M7.60071 0.0098632C7.734 0.00341159 7.86688 0 7.99987 0C7.8661 0 7.73298 0.00341159 7.60071 0.0098632Z" fill="#D32030"/>
<path d="M7.99987 16C8.50461 16 8.99753 15.9511 9.47627 15.8615V14.9401C9.05604 15.3956 8.5644 16 7.99987 16Z" fill="#D32030"/>
<path d="M15.8837 6.6454H11.0762C11.1399 7.64874 11.1322 8.68049 11.0532 9.67698L15.8227 9.67712C15.9381 9.13609 16 8.57538 16 8.00014C16 7.53805 15.959 7.0861 15.8837 6.6454Z" fill="#D71F28"/>
<path d="M11.067 9.81253C11.0225 10.2852 10.8678 10.6534 10.7907 11.0993L13.4988 13.8075C13.7668 13.5536 14.0172 13.282 14.2481 12.9937L11.067 9.81253Z" fill="#D71F28"/>
<path d="M9.47627 1.02429L9.47614 0.138051C8.99753 0.0487418 8.50478 0 7.99987 0C8.5644 0 9.056 0.568924 9.47627 1.02429Z" fill="#D32030"/>
<path d="M10.1613 14.2546C10.3777 13.8211 10.5632 13.322 10.7186 12.7766L10.1613 12.2193V14.2546Z" fill="#29337A"/>
<path d="M10.7879 3.47597C10.6194 2.83124 10.4108 2.24513 10.1613 1.74555V4.10235L10.7879 3.47597Z" fill="#29337A"/>
<path d="M11.2222 9.96764C11.2313 9.87114 11.2395 9.77426 11.2474 9.67698H10.9316L11.2222 9.96764Z" fill="white"/>
<path d="M10.1613 4.10235V1.74555C9.95943 1.34123 9.73106 0.993751 9.47614 0.717615V5.10559L10.8521 3.72964C10.8314 3.64374 10.8097 3.55984 10.7879 3.47597L10.1613 4.10235Z" fill="white"/>
<path d="M9.49938 6.6454H11.2703C11.2356 6.09846 11.1803 5.56034 11.1033 5.04155L9.49938 6.6454Z" fill="white"/>
<path d="M9.47627 15.2823C9.73119 15.0059 9.95943 14.6589 10.1613 14.2546V12.2193L10.7186 12.7766C10.8464 12.3285 10.9538 11.8498 11.0405 11.3489L9.47631 9.78487L9.47627 15.2823Z" fill="white"/>
<path d="M9.47627 15.2823L9.47631 9.78487L11.0405 11.3489C11.1174 10.9029 11.1779 10.4404 11.2222 9.96764L10.9316 9.67698H11.2474C11.3263 8.68046 11.334 7.64871 11.2703 6.6454H9.49938L11.1033 5.04155C11.0357 4.58706 10.952 4.14737 10.8521 3.72964L9.47614 5.10559V0.717615C9.05583 0.262118 8.5644 0 7.99987 0C7.86688 0 7.734 0.00341159 7.60071 0.0098632C7.20723 0.0295558 6.82125 0.077926 6.44455 0.152204V6.62179L2.25665 2.43388C1.99932 2.69941 1.75997 2.98233 1.54092 3.28134L4.90539 6.64553H0.116467C0.0414457 7.0861 0 7.53805 0 8.00014C0 8.57551 0.0621517 9.13596 0.177335 9.67698H6.42054L2.39297 13.7046C2.65671 13.9637 2.93758 14.205 3.23483 14.4257L6.44465 11.216V15.8475C6.82131 15.9217 7.20747 15.9702 7.60095 15.9899C7.73396 15.9964 7.86685 16 7.99987 16C8.5645 16 9.056 15.7378 9.47627 15.2823Z" fill="#E51D35"/>
</svg>
