<svg width="15" height="15" viewBox="0 0 15 15" fill="none" xmlns="http://www.w3.org/2000/svg">
<path d="M7.5 15C11.6421 15 15 11.6421 15 7.5C15 3.35786 11.6421 0 7.5 0C3.35786 0 0 3.35786 0 7.5C0 11.6421 3.35786 15 7.5 15Z" fill="#F0F0F0"/>
<path d="M14.5335 10.1087C14.835 9.29619 15 8.4174 15 7.5C15 6.5826 14.835 5.70381 14.5335 4.89132H0.466494C0.165029 5.70381 0 6.5826 0 7.5C0 8.4174 0.165029 9.29619 0.466494 10.1087L7.5 10.7609L14.5335 10.1087Z" fill="#0052B4"/>
<path d="M7.5 15C10.7247 15 13.4738 12.9647 14.5335 10.1087H0.466494C1.52619 12.9647 4.27526 15 7.5 15Z" fill="#D80027"/>
</svg>
