<svg width="97" height="85" viewBox="0 0 97 85" fill="none" xmlns="http://www.w3.org/2000/svg">
<g filter="url(#filter0_d_94_1066)">
<path d="M61.7115 37.0369C61.0807 36.2769 60.368 35.5984 59.6787 34.9422C59.4365 34.7116 59.186 34.4731 58.9447 34.2363L58.9445 34.2361C58.6199 33.9179 58.4611 33.692 58.4445 33.5252C58.4282 33.3612 58.5396 33.118 58.796 32.7583C59.1794 32.2175 59.5881 31.6757 59.9835 31.1517C60.3349 30.686 60.6982 30.2044 61.0464 29.72L61.1246 29.6113C61.804 28.666 62.5064 27.6886 62.8829 26.4975C62.9904 26.156 63.102 25.6506 62.8327 25.207C62.5633 24.7632 62.0639 24.6317 61.712 24.5715C61.5401 24.5419 61.3769 24.5394 61.2251 24.5394L56.8181 24.5355C56.0562 24.5227 55.5276 24.8858 55.2396 25.6148C55.009 26.197 54.7368 26.8717 54.4213 27.5118C53.8178 28.7475 53.051 30.1707 51.9394 31.3565L51.89 31.4094C51.8144 31.4906 51.6907 31.6233 51.6272 31.6538C51.5068 31.5777 51.3679 31.1427 51.3742 30.9148C51.3744 30.9091 51.3744 30.9035 51.3744 30.898L51.3705 25.7792C51.3705 25.7532 51.3687 25.7272 51.3653 25.7014C51.2664 24.9712 51.0737 24.2391 49.9239 24.011C49.8871 24.0036 49.8496 24 49.8121 24H45.2278C44.3654 24 43.9092 24.397 43.5434 24.8275C43.4376 24.9529 43.1563 25.2861 43.2996 25.6934C43.4446 26.1056 43.8767 26.1879 44.0185 26.2149C44.5181 26.3102 44.7764 26.594 44.8564 27.1366C45.0145 28.1909 45.0338 29.3187 44.9174 30.6842C44.885 31.0508 44.8246 31.3295 44.7272 31.5612C44.7002 31.6254 44.6765 31.6651 44.66 31.6885C44.6336 31.6778 44.5925 31.6573 44.5357 31.6182C44.1846 31.3767 43.92 31.0014 43.6642 30.6384C42.6423 29.1881 41.7827 27.5863 41.036 25.7407C40.7285 24.9844 40.1504 24.562 39.4093 24.5511C37.9974 24.5275 36.6915 24.528 35.4185 24.5529C34.818 24.5634 34.397 24.7534 34.1668 25.1177C33.9363 25.4827 33.9447 25.9481 34.1919 26.5012C35.9589 30.4508 37.5633 33.3241 39.3939 35.8175C40.6829 37.573 41.9804 38.7915 43.4773 39.6524C45.05 40.5568 46.8236 41.0001 48.8813 41C49.1153 41 49.3533 40.9942 49.5946 40.9827C50.8641 40.9246 51.3806 40.417 51.4369 39.1741C51.4685 38.5172 51.5413 37.9851 51.7936 37.5228C51.8642 37.3934 51.9438 37.3066 52.0066 37.2907C52.0733 37.274 52.1916 37.315 52.3232 37.401C52.5637 37.558 52.7709 37.7709 52.9412 37.9579C53.1138 38.1478 53.2883 38.3441 53.4571 38.5339C53.8164 38.9379 54.1879 39.3558 54.5771 39.7544C55.4575 40.6564 56.4724 41.0701 57.5949 40.9835L61.628 40.9854C61.6281 40.9854 61.6282 40.9854 61.6282 40.9854C61.641 40.9854 61.6538 40.985 61.6666 40.9841C62.1318 40.953 62.534 40.6941 62.7702 40.2737C63.0546 39.7674 63.0503 39.1261 62.7585 38.5576C62.454 37.9666 62.0589 37.4578 61.7115 37.0369ZM61.7642 39.7027C61.7086 39.8017 61.64 39.8197 61.6046 39.824L57.5723 39.8222C57.5722 39.8222 57.5721 39.8222 57.5719 39.8222C57.556 39.8222 57.5401 39.8228 57.5243 39.8242C56.7299 39.8907 56.0547 39.61 55.4017 38.941C55.0314 38.5617 54.669 38.1542 54.3185 37.7601C54.1478 37.568 53.9712 37.3694 53.7938 37.1742C53.5738 36.9327 53.3019 36.6551 52.9525 36.427C52.4293 36.0857 51.9958 36.096 51.7243 36.1648C51.4557 36.2328 51.0738 36.427 50.7807 36.9647C50.401 37.6604 50.3172 38.4109 50.2831 39.1199C50.2634 39.5535 50.1904 39.6681 50.16 39.6972C50.12 39.7353 49.9866 39.8024 49.5413 39.8228C47.4017 39.924 45.606 39.5388 44.0511 38.6445C42.6984 37.8665 41.5139 36.749 40.3236 35.128C38.5436 32.7037 36.9775 29.8963 35.2457 26.0253C35.183 25.885 35.1636 25.7975 35.158 25.7507C35.2022 25.7361 35.2885 25.7169 35.4398 25.7141C36.7 25.6896 37.9922 25.6889 39.3914 25.7123C39.5829 25.7152 39.8011 25.773 39.9662 26.1792C40.7464 28.1076 41.6476 29.7858 42.7215 31.3098C43.0067 31.7144 43.3616 32.2179 43.8832 32.5767C44.3609 32.9055 44.7486 32.8898 44.9898 32.8188C45.2311 32.7476 45.566 32.5501 45.7915 32.0133C45.937 31.6673 46.025 31.2777 46.0686 30.7854C46.193 29.3248 46.1709 28.1105 45.9992 26.9651C45.8781 26.1445 45.4566 25.5517 44.7926 25.2489C44.9105 25.1872 45.0434 25.1615 45.2279 25.1615H49.7522C50.0068 25.2189 50.0572 25.2863 50.0745 25.3094C50.1478 25.4073 50.1897 25.6391 50.2153 25.8202L50.2191 30.8918C50.2089 31.3779 50.444 32.4562 51.2443 32.7519C51.2509 32.7543 51.2575 32.7566 51.2642 32.7587C51.9928 32.9981 52.4748 32.4811 52.7335 32.2033L52.7796 32.154C53.9971 30.855 54.817 29.3372 55.4576 28.0257C55.7914 27.3484 56.0742 26.6479 56.3132 26.044C56.4329 25.7412 56.5417 25.6913 56.8015 25.6968C56.8051 25.6969 56.8086 25.6969 56.8122 25.6969L61.2248 25.7008C61.3274 25.7008 61.4345 25.702 61.5176 25.7163C61.7279 25.7523 61.8145 25.7962 61.843 25.8143C61.846 25.848 61.8453 25.9448 61.7818 26.1468C61.4617 27.1596 60.8431 28.0201 60.1883 28.9312L60.1101 29.0401C59.7698 29.5134 59.4105 29.9896 59.0632 30.4501C58.6627 30.9808 58.2488 31.5295 57.8563 32.0833C57.0172 33.2601 57.091 34.041 58.1381 35.0677C58.3856 35.3105 58.6392 35.552 58.8846 35.7856C59.5802 36.4479 60.2373 37.0735 60.8237 37.7798C61.1307 38.1518 61.4787 38.5986 61.7323 39.091C61.8646 39.3487 61.8322 39.5816 61.7642 39.7027Z" fill="#9B9B9B"/>
</g>
<defs>
<filter id="filter0_d_94_1066" x="0" y="0" width="97" height="85" filterUnits="userSpaceOnUse" color-interpolation-filters="sRGB">
<feFlood flood-opacity="0" result="BackgroundImageFix"/>
<feColorMatrix in="SourceAlpha" type="matrix" values="0 0 0 0 0 0 0 0 0 0 0 0 0 0 0 0 0 0 127 0" result="hardAlpha"/>
<feOffset dy="10"/>
<feGaussianBlur stdDeviation="17"/>
<feComposite in2="hardAlpha" operator="out"/>
<feColorMatrix type="matrix" values="0 0 0 0 0.4625 0 0 0 0 0.4625 0 0 0 0 0.4625 0 0 0 0.43 0"/>
<feBlend mode="normal" in2="BackgroundImageFix" result="effect1_dropShadow_94_1066"/>
<feBlend mode="normal" in="SourceGraphic" in2="effect1_dropShadow_94_1066" result="shape"/>
</filter>
</defs>
</svg>
