<svg width="35" height="33" viewBox="0 0 35 33" fill="none" xmlns="http://www.w3.org/2000/svg">
<path d="M0.5 1.5H34.5V15.5C34.5 24.8888 26.8888 32.5 17.5 32.5C8.11116 32.5 0.5 24.8888 0.5 15.5V1.5Z" stroke="black"/>
<path d="M9.28 13.32H7.04V12H13.14V13.32H10.9V19H9.28V13.32ZM17.004 19.12C16.2773 19.12 15.6207 18.9633 15.034 18.65C14.454 18.3367 13.9973 17.9067 13.664 17.36C13.3373 16.8067 13.174 16.1867 13.174 15.5C13.174 14.8133 13.3373 14.1967 13.664 13.65C13.9973 13.0967 14.454 12.6633 15.034 12.35C15.6207 12.0367 16.2773 11.88 17.004 11.88C17.7307 11.88 18.384 12.0367 18.964 12.35C19.544 12.6633 20.0007 13.0967 20.334 13.65C20.6673 14.1967 20.834 14.8133 20.834 15.5C20.834 16.1867 20.6673 16.8067 20.334 17.36C20.0007 17.9067 19.544 18.3367 18.964 18.65C18.384 18.9633 17.7307 19.12 17.004 19.12ZM17.004 17.74C17.4173 17.74 17.7907 17.6467 18.124 17.46C18.4573 17.2667 18.7173 17 18.904 16.66C19.0973 16.32 19.194 15.9333 19.194 15.5C19.194 15.0667 19.0973 14.68 18.904 14.34C18.7173 14 18.4573 13.7367 18.124 13.55C17.7907 13.3567 17.4173 13.26 17.004 13.26C16.5907 13.26 16.2173 13.3567 15.884 13.55C15.5507 13.7367 15.2873 14 15.094 14.34C14.9073 14.68 14.814 15.0667 14.814 15.5C14.814 15.9333 14.9073 16.32 15.094 16.66C15.2873 17 15.5507 17.2667 15.884 17.46C16.2173 17.6467 16.5907 17.74 17.004 17.74ZM24.7815 12C25.4015 12 25.9382 12.1033 26.3915 12.31C26.8515 12.5167 27.2048 12.81 27.4515 13.19C27.6982 13.57 27.8215 14.02 27.8215 14.54C27.8215 15.0533 27.6982 15.5033 27.4515 15.89C27.2048 16.27 26.8515 16.5633 26.3915 16.77C25.9382 16.97 25.4015 17.07 24.7815 17.07H23.3715V19H21.7515V12H24.7815ZM24.6915 15.75C25.1782 15.75 25.5482 15.6467 25.8015 15.44C26.0548 15.2267 26.1815 14.9267 26.1815 14.54C26.1815 14.1467 26.0548 13.8467 25.8015 13.64C25.5482 13.4267 25.1782 13.32 24.6915 13.32H23.3715V15.75H24.6915Z" fill="#303030"/>
</svg>
